<svg width="128" height="128" viewBox="0 0 128 128" xmlns="http://www.w3.org/2000/svg">
  <rect width="128" height="128" rx="18" fill="#0b1220"/>
  <path d="M18 96c14-10 22-4 34-12s16-22 30-24 20 8 28 6v34z" fill="#2a3a2e"/>
  <path d="M0 100c22 6 40-2 62 2s44 10 66 2v24H0z" fill="#0e1a2c"/>
  <rect x="46" y="38" width="36" height="34" rx="4" fill="#7fd8e8"/>
  <rect x="54" y="46" width="8" height="8" fill="#0b1220"/>
  <rect x="68" y="46" width="8" height="8" fill="#0b1220"/>
  <rect x="54" y="60" width="22" height="5" fill="#0b1220"/>
  <rect x="60" y="24" width="8" height="14" fill="#7fd8e8"/>
  <circle cx="64" cy="20" r="6" fill="#ffd27f"/>
</svg>
